# xmcd
# Copyright (C) 1995-1998 Ti Kan
#
# Track frame offsets:
#       150
#       15021
#       31184
#       50126
#       67381
#       84531
#       101918
#       119386
#       138023
#       155419
#       168988
#       187344
#
# Disc length: 2723 seconds
#
# Revision: 3
# Processed by: cddbd v1.4PL0 Copyright (c) Steve Scherf et al.
# Submitted via: CD-Transfer v1.0
#
DISCID=a10aa10c
DTITLE=Heimweh - 7 Mal Probiert
DYEAR=2002
DGENRE=
TTITLE0=Rock 'n' Roll Vo Bärn
TTITLE1=Schön Hingerenang
TTITLE2=Frouetier
TTITLE3=Mau Ufe Mau Abe
TTITLE4=7 X Probiert
TTITLE5=I Gseh Immer Nur Das Liecht
TTITLE6=Mer Singe 1 2 3
TTITLE7=Chumm Mer Möche Mit
TTITLE8=Es Bitzeli La Schmuse
TTITLE9=S' Vogulisi
TTITLE10=Am Tag Nach De Erschte Nacht
TTITLE11=Du Hesch E Ma
EXTD=
EXTT0=
EXTT1=
EXTT2=
EXTT3=
EXTT4=
EXTT5=
EXTT6=
EXTT7=
EXTT8=
EXTT9=
EXTT10=
EXTT11=
PLAYORDER=
